<?xml version="1.0" encoding="UTF-8" standalone="no"?>
<!-- Created with Inkscape (http://www.inkscape.org/) -->

<svg
   xmlns:dc="http://purl.org/dc/elements/1.1/"
   xmlns:cc="http://creativecommons.org/ns#"
   xmlns:rdf="http://www.w3.org/1999/02/22-rdf-syntax-ns#"
   xmlns:svg="http://www.w3.org/2000/svg"
   xmlns="http://www.w3.org/2000/svg"
   version="1.0"
   width="1005.8524"
   height="293.39624"
   viewBox="-1.8649874 -1.8649874 213.01182 62.166251"
   id="svg3281">
  <metadata
     id="metadata10">
    <rdf:RDF>
      <cc:Work
         rdf:about="">
        <dc:format>image/svg+xml</dc:format>
        <dc:type
           rdf:resource="http://purl.org/dc/dcmitype/StillImage" />
        <dc:title></dc:title>
      </cc:Work>
    </rdf:RDF>
  </metadata>
  <defs
     id="defs3283" />
  <path
     d="m 211.2024,60.301262 -213.125,0 0,-62.1662494 213.125,0 0,62.1662494 z"
     id="path4"
     style="fill:#000000;fill-opacity:1;fill-rule:nonzero;stroke:none" />
  <path
     d="m 73.6399,10.018762 c -5.01375,0 -7.87499,2.02875 -7.875,5.59375 0,2.21 0.92501,3.81 3.5625,4.59375 l 4.8125,1.40625 c 0.6425,0.19 1.15626,0.54625 1.15625,1.1875 0,0.76125 -0.6575,1.40625 -1.65625,1.40625 -0.64125,0 -1.05002,-0.23 -1.3125,-0.5625 -0.26125,-0.35625 -0.375,-0.8375 -0.375,-1.3125 l -6.5,0 c 0,4.4675 3.80248,5.75 7.9375,5.75 4.8475,0 8.25002,-1.7625 8.25,-5.96875 0,-2.0675 -0.9325,-3.5975 -3.09375,-4.5 -1.735,-0.73625 -4.12999,-1.21375 -5.4375,-1.59375 -0.71375,-0.21375 -1.125,-0.47625 -1.125,-1.09375 0,-0.52375 0.46878,-1 1.5625,-1 0.87875,0 1.47628,0.3675 1.5,1.4375 l 6.09375,0 c 0,-3.9925 -3.2225,-5.34375 -7.5,-5.34375 z m 93.6875,0.125 0,38.09375 2.15625,0 0,-38.09375 -2.15625,0 z m 21.71875,0.125 c -1.2675,0 -2.31251,1.02625 -2.3125,2.28125 0,1.2675 1.04501,2.28125 2.3125,2.28125 1.26125,0 2.28123,-1.01375 2.28125,-2.28125 0,-1.255 -1.01999,-2.28125 -2.28125,-2.28125 z m -170.71875,0.21875 3.71875,17.15625 7.375,0 1.59375,-11.125 0.03125,0 1.59375,11.125 7.375,0 3.71875,-17.15625 -6.09375,0 -1.4375,10.78125 -0.0625,0 -1.59375,-10.78125 -7.03125,0 -1.59375,10.78125 -0.03125,0 -1.46875,-10.78125 -6.09375,0 z m 29.5625,0 0,17.15625 13.25,0 0,-4.46875 -6.75,0 0,-1.9375 6.03125,0 0,-4.46875 -6.03125,0 0,-1.8125 6.53125,0 0,-4.46875 -13.03125,0 z m 37.625,0 0,4.59375 4.25,0 0,12.5625 6.78125,0 0,-12.5625 4.25,0 0,-4.59375 -15.28125,0 z m 19.875,0 0,17.15625 13.28125,0 0,-4.46875 -6.75,0 0,-1.9375 6.03125,0 0,-4.46875 -6.03125,0 0,-1.8125 6.53125,0 0,-4.46875 -13.0625,0 z m 18.3125,0 0,17.15625 6.65625,0 0,-6.125 0.78125,0 c 1.0925,0 1.51375,0.3325 1.65625,1.1875 0.2375,1.47375 0.44002,3.65375 0.84375,4.9375 l 6.65625,0 c -0.78375,-2.59125 -0.71377,-5.0275 -1.09375,-6.5 -0.3325,-1.3075 -1.24378,-2.045 -2.90625,-2.1875 l 0,-0.03125 c 2.56625,-0.61875 3.40626,-2.12125 3.40625,-4.09375 0,-3.2325 -2.15999,-4.34375 -5.84375,-4.34375 l -10.15625,0 z m 21.34375,0 0,17.15625 5.5,0 0,-10.46875 0.0625,0 3.625,10.46875 8.15625,0 0,-17.15625 -5.53125,0 0,10.375 -0.0312,0 -3.625,-10.375 -8.15625,0 z m 37.65625,0 0,37.6875 2.15625,0 0,-37.6875 -2.15625,0 z m 6.34375,0.0625 c 1.11,0 1.90628,0.89 1.90625,2 0,1.1225 -0.79624,1.96875 -1.90625,1.96875 -1.11625,0 -1.93753,-0.84625 -1.9375,-1.96875 0,-1.11 0.82126,-2 1.9375,-2 z m -0.84375,0.71875 0,2.5625 0.3125,0 0,-1.1875 0.5625,0 0.71875,1.1875 0.375,0 -0.75,-1.1875 c 0.4525,-0.0125 0.78127,-0.18625 0.78125,-0.6875 0,-0.42125 -0.23001,-0.6875 -0.90625,-0.6875 l -1.09375,0 z m 0.3125,0.21875 0.71875,0 c 0.31375,0 0.62499,0.04 0.625,0.4375 0,0.52 -0.51375,0.46875 -0.875,0.46875 l -0.46875,0 0,-0.90625 z m -58.15625,2.90625 0.625,0 c 1.33125,0 2.18749,0.24125 2.1875,1.5 0,1.28375 -0.9425,1.75 -2.25,1.75 l -0.5625,0 0,-3.25 z m 0.6875,16.15625 c -5.9175,0 -8.875,3.685 -8.875,9.03125 0,5.3475 2.95748,9.03125 8.875,9.03125 5.9175,0 8.84377,-3.68375 8.84375,-9.03125 0,-5.34625 -2.92627,-9.03125 -8.84375,-9.03125 z m -65.84375,0.4375 0,11.40625 c 0,4.135 2.97503,6.21875 8.15625,6.21875 5.18,0 8.15625,-2.08375 8.15625,-6.21875 l 0,-11.40625 -6.8125,0 0,11.125 c 0,1.35375 -0.63122,1.875 -1.34375,1.875 -0.7125,0 -1.34374,-0.52125 -1.34375,-1.875 l 0,-11.125 -6.8125,0 z m 21.9375,0 0,17.15625 5.53125,0 0,-10.4375 0.03125,0 3.625,10.4375 8.15625,0 0,-17.15625 -5.5,0 0,10.40625 -0.0625,0 -3.625,-10.40625 -8.15625,0 z m 23.09375,0 0,17.15625 6.8125,0 0,-17.15625 -6.8125,0 z m 34.8125,0 0,17.15625 5.5,0 0,-10.4375 0.0625,0 3.625,10.4375 8.15625,0 0,-17.15625 -5.53125,0 0,10.40625 -0.0312,0 -3.625,-10.40625 -8.15625,0 z m -14,4.03125 c 1.09375,0 1.81252,0.69 1.8125,4.5625 0,3.96875 -0.76752,4.56249 -1.8125,4.5625 -1.045,0 -1.84375,-0.59375 -1.84375,-4.5625 0,-3.8725 0.75123,-4.5625 1.84375,-4.5625 z"
     id="path6"
     style="fill:#ffde38;fill-opacity:1;fill-rule:nonzero;stroke:none" />
</svg>
